# xmcd
#
# Track frame offsets: 
#        150
#        13722
#        23905
#        36130
#        50205
#        63037
#        74933
#        88870
#        101767
#        113179
#        127054
#        138349
#        149390
#        169103
#        180826
#        194799
#
# Disc length: 2768 seconds
#
# Revision: 0
# Processed by: cddbd v1.5.2PL0 Copyright (c) Steve Scherf et al.
# Submitted via: ExactAudioCopy v0.99pb5
#
DISCID=f30ace10
DTITLE=Various Artist - Formidable Rhythm and Blues [CD1 - Rapide)
DYEAR=2008
DGENRE=R&B
TTITLE0=Eddie Floyd - Knock On Wood
TTITLE1=Arthur Conley - Sweet Soul Music
TTITLE2=Aretha Franklin - Chain Of Fools
TTITLE3=Archie Bell and The Drells
TTITLE4=Booker T. and The MG's - Green Onions
TTITLE5=Sam and Dave - Ain't That A Lot Of Love
TTITLE6=The Spinners - I'll Be Around
TTITLE7=Clarence Carter - The Road Of Love
TTITLE8=Clyde McPhatter - A Lover's Question
TTITLE9=Franck Culley - Cole Slaw
TTITLE10=Herbie Mann - Scratch
TTITLE11=Doris Troy - Just One Look
TTITLE12=King Curtis - Pots And Pans
TTITLE13=The Sweet Inspirations - Watch The One Who Brings You The New
TTITLE13=s
TTITLE14=Joe Morris Orchestra - The Applejack
TTITLE15=Percy Sledge - Spooky
EXTD=
EXTT0=
EXTT1=
EXTT2=
EXTT3=
EXTT4=
EXTT5=
EXTT6=
EXTT7=
EXTT8=
EXTT9=
EXTT10=
EXTT11=
EXTT12=
EXTT13=
EXTT14=
EXTT15=
PLAYORDER=
